<?xml version="1.0" standalone="no"?>
<!DOCTYPE svg PUBLIC "-//W3C//DTD SVG 20010904//EN"
 "http://www.w3.org/TR/2001/REC-SVG-20010904/DTD/svg10.dtd">
<svg version="1.0" xmlns="http://www.w3.org/2000/svg"
 width="512.000000pt" height="512.000000pt" viewBox="0 0 512.000000 512.000000"
 preserveAspectRatio="xMidYMid meet">
<metadata>
Created by potrace 1.11, written by Peter Selinger 2001-2013
</metadata>
<g transform="translate(0.000000,512.000000) scale(0.100000,-0.100000)"
fill="#000000" stroke="none">
<path d="M1630 4486 c0 -8 -12 -12 -34 -11 -24 0 -32 -3 -29 -12 5 -12 -8 -18
-29 -14 -5 0 -8 -6 -8 -14 0 -8 -5 -14 -12 -12 -6 1 -15 -9 -19 -23 -4 -14 -7
-19 -8 -12 -2 21 -17 13 -18 -10 -1 -12 -9 -25 -17 -30 -8 -5 -13 -18 -11 -31
4 -22 4 -22 -11 -2 -16 20 -16 20 -9 -3 4 -14 1 -29 -7 -39 -7 -9 -8 -14 -2
-10 12 7 12 -29 -1 -40 -4 -5 -5 -3 -1 4 3 6 3 14 -2 17 -4 2 -8 -13 -8 -34 0
-21 3 -37 8 -34 10 6 11 -10 1 -20 -11 -10 -11 -146 -1 -140 10 6 11 -10 1
-20 -11 -10 -11 -146 -1 -140 4 3 8 -2 8 -11 0 -9 -4 -14 -9 -11 -11 7 -8 -21
4 -31 4 -4 5 -2 0 6 -6 10 -4 12 5 6 11 -7 10 -10 -1 -19 -21 -16 -20 -143 1
-156 13 -8 12 -10 -4 -10 -16 0 -17 -2 -5 -17 8 -9 9 -14 4 -11 -7 4 -10 -19
-11 -63 0 -37 4 -63 8 -56 5 8 8 7 8 -5 0 -10 -5 -18 -12 -18 -6 0 -3 -7 8
-16 15 -12 15 -14 2 -11 -20 7 -18 -20 3 -34 11 -7 10 -9 -5 -9 -16 0 -17 -3
-8 -12 7 -7 12 -17 12 -23 0 -5 -5 -3 -10 5 -8 12 -9 10 -7 -7 2 -12 7 -26 12
-30 4 -5 5 -2 0 6 -6 10 -4 12 5 6 11 -7 10 -10 -1 -19 -21 -16 -20 -143 1
-156 13 -8 12 -10 -4 -10 -16 0 -17 -2 -5 -17 8 -9 9 -14 4 -11 -7 4 -10 -19
-11 -63 0 -37 4 -63 8 -56 5 8 8 7 8 -5 0 -10 -5 -18 -12 -18 -6 0 -3 -7 8
-16 15 -12 15 -14 2 -11 -20 7 -18 -20 3 -34 11 -7 10 -9 -5 -9 -16 0 -17 -3
-8 -12 7 -7 12 -17 12 -23 0 -5 -5 -3 -10 5 -8 12 -9 10 -7 -7 2 -12 7 -26 12
-30 4 -5 5 -2 0 6 -6 10 -4 12 5 6 11 -7 10 -10 -1 -19 -21 -16 -20 -143 1
-156 13 -8 12 -10 -4 -10 -16 0 -17 -2 -5 -17 8 -9 9 -14 4 -11 -7 4 -10 -19
-11 -63 0 -37 4 -63 8 -56 5 8 8 7 8 -5 0 -10 -5 -18 -12 -18 -6 0 -3 -7 8
-16 15 -12 15 -14 2 -11 -20 7 -18 -20 3 -34 11 -7 10 -9 -6 -9 -15 0 -16 -3
-7 -12 7 -7 12 -17 12 -22 0 -6 -5 -4 -10 4 -8 12 -9 10 -7 -7 2 -12 7 -26 12
-30 4 -5 5 -2 0 6 -6 10 -4 12 5 6 11 -7 10 -10 -1 -19 -21 -16 -20 -143 1
-156 13 -8 12 -10 -4 -10 -16 0 -17 -2 -5 -17 8 -9 9 -14 4 -11 -7 4 -10 -19
-11 -63 0 -37 4 -63 8 -56 5 8 8 7 8 -5 0 -10 -5 -18 -12 -18 -6 0 -3 -7 8
-16 15 -12 15 -14 2 -11 -20 7 -18 -20 3 -34 11 -7 10 -9 -6 -9 -15 0 -16 -3
-7 -12 7 -7 12 -17 12 -22 0 -6 -5 -4 -10 4 -8 12 -9 10 -7 -7 2 -12 7 -26 12
-30 4 -5 5 -2 0 6 -6 10 -4 12 5 6 11 -7 10 -10 -1 -19 -21 -16 -20 -143 1
-156 13 -8 12 -10 -4 -10 -16 0 -17 -2 -5 -17 8 -9 9 -14 4 -11 -7 4 -10 -19
-11 -63 0 -37 4 -63 8 -56 5 8 8 7 8 -5 0 -10 -5 -18 -12 -18 -6 0 -3 -7 8
-16 15 -12 15 -14 2 -11 -20 7 -18 -20 3 -34 11 -7 10 -9 -6 -9 -15 0 -16 -3
-7 -12 7 -7 12 -17 12 -22 0 -6 -5 -4 -10 4 -8 12 -9 10 -7 -7 2 -12 7 -26 12
-30 4 -5 5 -2 0 6 -6 10 -4 12 5 6 11 -7 10 -10 -1 -19 -11 -9 -14 -40 -14
-138 0 -69 3 -124 7 -122 10 7 10 -10 1 -20 -11 -10 -11 -146 -1 -140 4 3 8
-2 8 -11 0 -9 -4 -14 -9 -10 -6 3 -8 -6 -5 -21 3 -19 1 -24 -8 -18 -10 6 -9 3
1 -9 7 -9 10 -17 6 -17 -5 0 0 -10 11 -22 14 -16 15 -20 4 -16 -12 4 -16 -1
-16 -17 0 -13 4 -21 8 -19 4 3 8 -2 8 -11 0 -9 -4 -14 -8 -11 -5 3 -9 -1 -9
-9 0 -8 4 -12 9 -9 4 3 8 1 8 -5 0 -5 3 -18 6 -28 5 -16 4 -16 -10 1 -19 24
-21 8 -2 -16 7 -10 17 -14 22 -10 4 4 2 -2 -6 -12 -14 -18 -13 -19 4 -13 17 7
17 6 5 -10 -9 -11 -10 -14 -1 -9 8 5 12 1 12 -12 0 -11 10 -27 23 -36 12 -9
17 -14 10 -11 -6 3 -14 1 -17 -4 -4 -5 5 -8 19 -7 13 2 22 -1 19 -6 -8 -12 30
-48 50 -48 8 0 16 -5 18 -11 2 -7 16 -13 30 -13 15 -1 31 -6 35 -10 5 -5 2 -6
-6 -1 -9 5 -12 4 -7 -3 7 -12 1846 -17 1846 -4 0 4 9 13 21 20 15 10 19 10 14
1 -5 -7 -3 -10 6 -7 8 3 13 10 12 15 -1 5 8 10 20 10 12 1 33 15 46 30 13 15
27 27 30 26 6 -3 7 2 10 33 0 8 6 12 11 9 6 -4 10 5 10 20 0 14 9 33 19 42 15
12 17 21 10 34 -6 12 -5 20 3 25 7 4 8 3 4 -4 -4 -7 -3 -12 1 -12 5 0 8 85 8
189 0 104 -3 187 -7 184 -5 -2 -8 1 -8 6 0 6 3 11 8 11 4 0 7 105 7 234 0 129
-3 232 -7 229 -5 -2 -8 1 -8 6 0 6 3 11 8 11 4 0 7 105 7 234 0 129 -3 232 -7
229 -5 -2 -8 1 -8 6 0 6 3 11 8 11 4 0 7 141 7 314 0 173 -3 312 -7 309 -5 -2
-8 1 -8 6 0 6 3 11 8 11 4 0 7 105 7 234 0 129 -3 232 -7 229 -5 -2 -8 1 -8 6
0 6 3 11 8 11 4 0 7 105 7 234 0 129 -3 232 -7 229 -5 -2 -8 1 -8 6 0 6 3 11
8 11 4 0 7 124 7 275 0 238 -2 275 -15 275 -13 0 -13 1 0 10 10 6 11 10 2 10
-6 0 -11 3 -11 8 4 21 -2 32 -13 26 -8 -5 -7 0 2 11 9 11 10 16 3 11 -9 -5
-13 1 -13 21 0 22 -2 25 -10 13 -8 -13 -10 -12 -10 4 0 20 -65 88 -74 78 -6
-5 -10 14 -7 31 1 5 -3 6 -9 2 -6 -3 -8 -11 -5 -16 4 -5 1 -9 -4 -9 -6 0 -11
8 -11 18 0 14 -2 15 -10 2 -8 -12 -11 -11 -16 8 -6 21 -7 21 -20 5 -12 -17
-13 -17 -19 -1 -7 17 -61 18 -916 18 -740 0 -909 -3 -909 -14z m-200 -343 c0
-5 -5 -15 -10 -23 -7 -12 -9 -10 -7 8 1 19 17 33 17 15z m2257 -8 c0 -8 -4
-12 -9 -9 -5 3 -6 10 -3 15 9 13 12 11 12 -6z m0 -40 c0 -8 -4 -12 -9 -9 -5 3
-6 10 -3 15 9 13 12 11 12 -6z m0 -40 c0 -8 -4 -12 -9 -9 -5 3 -6 10 -3 15 9
13 12 11 12 -6z m0 -70 c0 -8 -4 -12 -9 -9 -5 3 -6 10 -3 15 9 13 12 11 12 -6z
m-2257 -2 c0 -5 -5 -15 -10 -23 -7 -12 -9 -10 -7 8 1 19 17 33 17 15z m2257
-208 c0 -8 -4 -12 -9 -9 -5 3 -6 10 -3 15 9 13 12 11 12 -6z m-2264 -10 c-3
-9 -8 -14 -10 -11 -3 3 -2 9 2 15 9 16 15 13 8 -4z m2264 -30 c0 -8 -4 -12 -9
-9 -5 3 -6 10 -3 15 9 13 12 11 12 -6z m-2262 -4 c3 -5 2 -12 -3 -15 -5 -3 -9
1 -9 9 0 17 3 19 12 6z m5 -52 c0 -5 -4 -9 -8 -9 -5 0 -9 7 -9 15 0 8 4 12 9
9 4 -3 8 -9 8 -15z m2257 -24 c0 -8 -4 -12 -9 -9 -5 3 -6 10 -3 15 9 13 12 11
12 -6z m0 -40 c0 -8 -4 -12 -9 -9 -5 3 -6 10 -3 15 9 13 12 11 12 -6z m-2257
-32 c0 -5 -5 -15 -10 -23 -7 -12 -9 -10 -7 8 1 19 17 33 17 15z m2257 -8 c0
-8 -4 -12 -9 -9 -5 3 -6 10 -3 15 9 13 12 11 12 -6z m0 -70 c0 -8 -4 -12 -9
-9 -5 3 -6 10 -3 15 9 13 12 11 12 -6z m-2264 -220 c-3 -9 -8 -14 -10 -11 -3
3 -2 9 2 15 9 16 15 13 8 -4z m2 -34 c3 -5 2 -12 -3 -15 -5 -3 -9 1 -9 9 0 17
3 19 12 6z m5 -52 c0 -5 -4 -9 -8 -9 -5 0 -9 7 -9 15 0 8 4 12 9 9 4 -3 8 -9
8 -15z m2257 -24 c0 -8 -4 -12 -9 -9 -5 3 -6 10 -3 15 9 13 12 11 12 -6z m0
-40 c0 -8 -4 -12 -9 -9 -5 3 -6 10 -3 15 9 13 12 11 12 -6z m-2257 -32 c0 -5
-5 -15 -10 -23 -7 -12 -9 -10 -7 8 1 19 17 33 17 15z m2257 -8 c0 -8 -4 -12
-9 -9 -5 3 -6 10 -3 15 9 13 12 11 12 -6z m0 -70 c0 -8 -4 -12 -9 -9 -5 3 -6
10 -3 15 9 13 12 11 12 -6z m0 -210 c0 -8 -4 -12 -9 -9 -5 3 -6 10 -3 15 9 13
12 11 12 -6z m-2264 -10 c-3 -9 -8 -14 -10 -11 -3 3 -2 9 2 15 9 16 15 13 8
-4z m2264 -30 c0 -8 -4 -12 -9 -9 -5 3 -6 10 -3 15 9 13 12 11 12 -6z m-2262
-4 c3 -5 2 -12 -3 -15 -5 -3 -9 1 -9 9 0 17 3 19 12 6z m5 -52 c0 -5 -4 -9 -8
-9 -5 0 -9 7 -9 15 0 8 4 12 9 9 4 -3 8 -9 8 -15z m2257 -24 c0 -8 -4 -12 -9
-9 -5 3 -6 10 -3 15 9 13 12 11 12 -6z m0 -40 c0 -8 -4 -12 -9 -9 -5 3 -6 10
-3 15 9 13 12 11 12 -6z m-2257 -32 c0 -5 -5 -15 -10 -23 -7 -12 -9 -10 -7 8
1 19 17 33 17 15z m2257 -8 c0 -8 -4 -12 -9 -9 -5 3 -6 10 -3 15 9 13 12 11
12 -6z m0 -80 c0 -8 -4 -12 -9 -9 -5 3 -6 10 -3 15 9 13 12 11 12 -6z m0 -40
c0 -8 -4 -12 -9 -9 -5 3 -6 10 -3 15 9 13 12 11 12 -6z m0 -40 c0 -8 -4 -12
-9 -9 -5 3 -6 10 -3 15 9 13 12 11 12 -6z m0 -70 c0 -8 -4 -12 -9 -9 -5 3 -6
10 -3 15 9 13 12 11 12 -6z m-2264 -60 c-3 -9 -8 -14 -10 -11 -3 3 -2 9 2 15
9 16 15 13 8 -4z m2 -34 c3 -5 2 -12 -3 -15 -5 -3 -9 1 -9 9 0 17 3 19 12 6z
m5 -52 c0 -5 -4 -9 -8 -9 -5 0 -9 7 -9 15 0 8 4 12 9 9 4 -3 8 -9 8 -15z
m2257 -64 c0 -8 -4 -12 -9 -9 -5 3 -6 10 -3 15 9 13 12 11 12 -6z m-2257 -32
c0 -5 -5 -15 -10 -23 -7 -12 -9 -10 -7 8 1 19 17 33 17 15z m2257 -8 c0 -8 -4
-12 -9 -9 -5 3 -6 10 -3 15 9 13 12 11 12 -6z m0 -80 c0 -8 -4 -12 -9 -9 -5 3
-6 10 -3 15 9 13 12 11 12 -6z m0 -40 c0 -8 -4 -12 -9 -9 -5 3 -6 10 -3 15 9
13 12 11 12 -6z m0 -40 c0 -8 -4 -12 -9 -9 -5 3 -6 10 -3 15 9 13 12 11 12 -6z
m0 -70 c0 -8 -4 -12 -9 -9 -5 3 -6 10 -3 15 9 13 12 11 12 -6z m-2264 -60 c-3
-9 -8 -14 -10 -11 -3 3 -2 9 2 15 9 16 15 13 8 -4z m2 -34 c3 -5 2 -12 -3 -15
-5 -3 -9 1 -9 9 0 17 3 19 12 6z m5 -52 c0 -5 -4 -9 -8 -9 -5 0 -9 7 -9 15 0
8 4 12 9 9 4 -3 8 -9 8 -15z m0 -96 c0 -5 -5 -15 -10 -23 -7 -12 -9 -10 -7 8
1 19 17 33 17 15z m2257 -88 c0 -8 -4 -12 -9 -9 -5 3 -6 10 -3 15 9 13 12 11
12 -6z m0 -40 c0 -8 -4 -12 -9 -9 -5 3 -6 10 -3 15 9 13 12 11 12 -6z m0 -40
c0 -8 -4 -12 -9 -9 -5 3 -6 10 -3 15 9 13 12 11 12 -6z m0 -70 c0 -8 -4 -12
-9 -9 -5 3 -6 10 -3 15 9 13 12 11 12 -6z m-2264 -60 c-3 -9 -8 -14 -10 -11
-3 3 -2 9 2 15 9 16 15 13 8 -4z m2 -34 c3 -5 2 -12 -3 -15 -5 -3 -9 1 -9 9 0
17 3 19 12 6z m5 -68 c0 -5 -5 -15 -10 -23 -7 -12 -9 -10 -7 8 1 19 17 33 17
15z m2257 -48 c0 -8 -4 -12 -9 -9 -5 3 -6 10 -3 15 9 13 12 11 12 -6z m0 -40
c0 -8 -4 -12 -9 -9 -5 3 -6 10 -3 15 9 13 12 11 12 -6z m-2257 -72 c0 -5 -5
-15 -10 -23 -7 -12 -9 -10 -7 8 1 19 17 33 17 15z m2257 -8 c0 -8 -4 -12 -9
-9 -5 3 -6 10 -3 15 9 13 12 11 12 -6z m0 -40 c0 -8 -4 -12 -9 -9 -5 3 -6 10
-3 15 9 13 12 11 12 -6z m0 -40 c0 -8 -4 -12 -9 -9 -5 3 -6 10 -3 15 9 13 12
11 12 -6z m0 -70 c0 -8 -4 -12 -9 -9 -5 3 -6 10 -3 15 9 13 12 11 12 -6z m0
-70 c0 -8 -4 -12 -9 -9 -5 3 -6 10 -3 15 9 13 12 11 12 -6z m0 -40 c0 -8 -4
-12 -9 -9 -5 3 -6 10 -3 15 9 13 12 11 12 -6z m0 -40 c0 -8 -4 -12 -9 -9 -5 3
-6 10 -3 15 9 13 12 11 12 -6z m-107 -215 c-6 -11 -13 -20 -16 -20 -2 0 0 9 6
20 6 11 13 20 16 20 2 0 0 -9 -6 -20z"/>
<path d="M3665 689 c-4 -6 -5 -12 -2 -15 2 -3 7 2 10 11 7 17 1 20 -8 4z"/>
</g>
</svg>
