<?xml version="1.0" standalone="no"?>
<!DOCTYPE svg PUBLIC "-//W3C//DTD SVG 20010904//EN"
 "http://www.w3.org/TR/2001/REC-SVG-20010904/DTD/svg10.dtd">
<svg version="1.0" xmlns="http://www.w3.org/2000/svg"
 width="512.000000pt" height="512.000000pt" viewBox="0 0 512.000000 512.000000"
 preserveAspectRatio="xMidYMid meet">
<metadata>
Created by potrace 1.11, written by Peter Selinger 2001-2013
</metadata>
<g transform="translate(0.000000,512.000000) scale(0.100000,-0.100000)"
fill="#000000" stroke="none">
<path d="M1460 4990 c8 -5 19 -6 25 -3 5 4 6 2 2 -2 -4 -5 -21 -10 -37 -11
-17 -1 -37 -10 -46 -19 -9 -9 -23 -14 -30 -11 -8 3 -14 1 -14 -4 0 -6 -6 -9
-12 -7 -7 1 -12 -4 -10 -10 1 -7 -3 -13 -9 -13 -5 0 -7 -4 -4 -10 3 -5 -1 -10
-9 -10 -9 0 -16 -5 -16 -11 0 -5 -4 -8 -9 -4 -5 3 -13 0 -17 -6 -4 -8 -3 -9 4
-5 7 4 12 3 12 -2 0 -6 -7 -13 -16 -16 -8 -3 -13 -10 -10 -14 3 -5 -4 -16 -15
-25 -11 -10 -17 -22 -14 -27 3 -6 -2 -10 -12 -10 -15 0 -16 -2 -3 -10 10 -6
11 -10 3 -10 -7 0 -13 -12 -13 -26 0 -21 -4 -25 -17 -20 -17 6 -17 5 0 -8 21
-16 22 -27 2 -20 -11 5 -13 2 -9 -10 3 -9 10 -16 15 -16 5 0 9 -4 9 -10 0 -5
-7 -7 -15 -4 -11 5 -13 2 -9 -10 3 -9 9 -14 13 -12 4 3 7 -19 7 -49 0 -40 -3
-52 -13 -48 -9 4 -11 0 -7 -11 3 -9 10 -16 15 -16 5 0 9 -8 8 -17 0 -11 -3
-13 -6 -5 -2 6 -9 12 -14 12 -5 0 -4 -10 3 -22 18 -33 19 -108 1 -101 -9 4
-11 0 -7 -11 3 -9 10 -16 15 -16 5 0 9 -8 8 -17 0 -11 -3 -13 -6 -5 -2 6 -9
12 -14 12 -5 0 -4 -10 3 -22 18 -33 19 -108 1 -101 -9 4 -11 0 -7 -11 3 -9 10
-16 15 -16 5 0 9 -8 8 -17 0 -11 -3 -13 -6 -5 -2 6 -9 12 -14 12 -5 0 -4 -10
3 -22 18 -33 19 -108 1 -101 -9 4 -11 0 -7 -11 3 -9 10 -16 15 -16 5 0 9 -8 8
-17 0 -11 -3 -13 -6 -5 -2 6 -9 12 -14 12 -5 0 -4 -10 3 -22 18 -33 19 -108 1
-101 -9 4 -11 0 -7 -11 3 -9 9 -16 13 -16 4 0 7 -9 8 -20 1 -11 -3 -20 -8 -20
-6 0 -8 4 -4 9 3 5 1 12 -4 16 -12 7 -5 -36 7 -44 12 -8 11 -42 0 -35 -5 3 -5
10 -2 16 4 6 3 8 -3 5 -14 -9 -9 -47 8 -58 12 -7 12 -9 -1 -9 -12 0 -15 -13
-13 -62 1 -81 1 -80 13 -73 6 3 10 2 10 -4 0 -5 -5 -11 -12 -13 -15 -5 -18
-227 -2 -242 13 -13 15 -48 2 -40 -5 3 -5 10 -2 16 4 6 3 8 -3 5 -14 -9 -9
-47 8 -58 12 -7 12 -9 -1 -9 -12 0 -15 -13 -13 -62 1 -81 1 -80 13 -73 6 3 10
2 10 -4 0 -5 -5 -11 -12 -13 -15 -5 -18 -227 -2 -242 13 -13 15 -48 2 -40 -5
3 -5 10 -2 16 4 6 3 8 -3 5 -14 -9 -9 -47 8 -58 12 -7 12 -9 -1 -9 -12 0 -15
-13 -13 -62 1 -81 1 -80 13 -73 5 3 10 2 10 -4 0 -5 -5 -11 -12 -13 -15 -5
-18 -227 -2 -242 13 -13 15 -48 2 -40 -5 3 -5 10 -2 16 4 6 3 8 -3 5 -14 -9
-9 -47 8 -58 12 -7 12 -9 -1 -9 -12 0 -15 -13 -13 -62 1 -81 1 -80 13 -73 6 3
10 2 10 -4 0 -5 -5 -11 -12 -13 -15 -5 -18 -227 -2 -242 13 -13 15 -48 2 -40
-5 3 -5 10 -2 16 4 6 3 8 -3 5 -14 -9 -9 -47 8 -58 12 -7 12 -9 -1 -9 -12 0
-15 -13 -13 -62 1 -81 1 -80 13 -73 5 3 10 2 10 -4 0 -5 -5 -11 -12 -13 -7 -3
-12 -38 -12 -105 -1 -79 1 -97 10 -81 10 18 11 17 11 -10 0 -21 -4 -29 -14
-25 -9 4 -11 0 -7 -11 3 -9 10 -16 14 -16 5 0 8 -9 7 -19 0 -11 -5 -17 -9 -15
-5 3 -5 11 -2 17 4 7 3 9 -1 4 -13 -12 -13 -86 0 -81 6 3 11 -6 12 -18 0 -13
-1 -17 -4 -10 -3 6 -9 12 -14 12 -5 0 -4 -10 3 -22 18 -33 19 -108 1 -101 -9
4 -11 0 -7 -11 3 -9 10 -16 15 -16 5 0 9 -8 8 -17 0 -11 -3 -13 -6 -5 -2 6 -9
12 -14 12 -5 0 -4 -10 3 -22 18 -33 19 -108 1 -101 -9 4 -11 0 -7 -11 3 -9 10
-16 15 -16 5 0 9 -8 8 -17 0 -11 -3 -13 -6 -5 -2 6 -9 12 -14 12 -5 0 -4 -10
3 -23 18 -32 19 -107 1 -100 -9 4 -11 0 -7 -11 3 -9 10 -16 15 -16 5 0 9 -8 8
-17 0 -11 -3 -13 -6 -5 -2 6 -9 12 -14 12 -5 0 -4 -10 3 -23 18 -32 19 -107 1
-100 -9 4 -11 0 -7 -11 3 -9 10 -16 15 -16 5 0 9 -8 8 -17 0 -11 -3 -13 -6 -5
-2 6 -9 12 -14 12 -5 0 -4 -10 3 -23 18 -32 19 -107 1 -100 -9 4 -11 0 -7 -11
3 -9 9 -16 13 -16 4 0 8 -7 8 -15 0 -11 -4 -12 -14 -3 -11 8 -12 7 -7 -6 3 -9
9 -16 13 -16 4 0 8 -20 8 -45 1 -27 7 -51 17 -60 21 -22 20 -31 -1 -14 -15 11
-16 11 -6 0 6 -7 10 -19 9 -25 -2 -6 -1 -8 1 -3 7 12 23 8 20 -5 -1 -7 3 -12
9 -11 6 1 11 -5 12 -13 1 -8 3 -21 4 -29 2 -17 32 -29 50 -20 7 4 2 -3 -12
-14 -14 -12 -20 -21 -15 -20 31 4 56 -2 49 -13 -5 -8 -2 -9 10 -5 10 4 15 3
11 -3 -3 -6 -1 -10 5 -10 6 0 8 -5 4 -12 -5 -9 -2 -8 9 1 15 12 17 12 11 -4
-6 -14 -3 -16 16 -10 15 5 20 4 16 -4 -4 -6 -2 -11 3 -11 6 0 11 6 11 13 0 8
3 7 9 -3 6 -8 8 -17 5 -21 -2 -4 507 -7 1131 -8 647 0 1137 4 1140 9 3 5 -4 7
-15 5 -11 -2 -18 0 -15 5 3 5 17 7 31 4 15 -3 23 -1 20 5 -3 5 3 7 13 4 11 -3
28 0 38 7 16 10 16 11 1 6 -10 -3 -18 -1 -18 4 0 6 6 10 13 10 8 0 24 12 38
26 13 14 33 30 44 36 14 6 12 3 -5 -11 -14 -11 -20 -21 -13 -21 18 0 52 49 48
71 -3 17 -1 18 18 7 21 -11 21 -10 7 7 -8 10 -10 16 -3 12 17 -10 28 13 12 24
-11 7 -11 9 3 9 9 0 20 5 24 12 5 8 1 9 -12 5 -19 -7 -19 -7 0 7 11 9 16 22
13 31 -4 8 -2 15 3 15 6 0 10 7 10 16 0 8 4 13 8 10 4 -2 8 4 8 14 0 18 -1 18
-20 2 -14 -11 -17 -12 -10 -2 7 8 10 39 9 68 -1 37 2 52 10 48 13 -5 14 49 0
61 -4 5 -5 2 -1 -4 4 -7 3 -13 -2 -13 -4 0 -8 24 -8 54 1 30 4 52 9 49 4 -2 5
-8 2 -13 -3 -4 3 -14 13 -21 15 -12 16 -12 6 1 -6 8 -10 25 -9 38 1 13 -3 26
-8 29 -6 3 -7 1 -3 -5 4 -7 3 -12 -2 -12 -5 0 -8 18 -8 40 0 26 4 39 11 36 7
-2 12 2 12 10 0 7 -4 11 -9 8 -9 -6 -9 -6 -12 49 -2 21 2 40 7 44 6 4 7 1 2
-8 -5 -8 -4 -11 0 -6 5 4 9 16 10 27 2 19 1 19 -19 3 -13 -12 -17 -13 -9 -3 6
9 10 28 9 42 -2 15 1 25 6 22 5 -3 7 -13 4 -21 -3 -8 -2 -11 3 -8 11 6 8 52
-4 63 -4 4 -5 1 -1 -5 4 -7 3 -13 -2 -13 -6 0 -9 11 -8 24 1 16 5 21 12 15 13
-10 12 26 -1 38 -4 5 -5 2 -1 -4 4 -7 3 -13 -2 -13 -6 0 -9 11 -8 24 1 16 5
21 12 15 13 -10 12 26 -1 38 -4 5 -5 2 -1 -4 4 -7 3 -13 -2 -13 -5 0 -8 15 -8
34 1 19 4 32 9 29 4 -2 5 -8 2 -13 -3 -5 -2 -11 3 -14 11 -7 8 51 -3 61 -4 5
-5 2 -1 -4 4 -7 3 -13 -2 -13 -5 0 -8 18 -8 40 0 25 4 39 11 36 13 -5 13 50 0
61 -4 5 -5 2 -1 -4 4 -7 3 -13 -2 -13 -6 0 -9 11 -8 24 1 16 5 21 12 15 13
-10 12 26 -1 38 -4 5 -5 2 -1 -4 4 -7 3 -13 -2 -13 -6 0 -9 11 -8 24 1 16 5
21 12 15 13 -10 12 26 -1 38 -4 5 -5 2 -1 -4 4 -7 3 -13 -2 -13 -5 0 -8 15 -8
34 1 19 4 32 9 29 4 -2 5 -8 2 -13 -3 -5 -2 -11 3 -14 11 -7 8 51 -3 61 -4 5
-5 2 -1 -5 4 -6 3 -12 -2 -12 -5 0 -8 18 -8 40 0 26 4 39 11 36 7 -2 12 2 12
10 0 7 -4 11 -9 8 -9 -6 -9 -6 -12 49 -2 21 2 40 7 44 6 4 7 1 2 -8 -5 -8 -4
-11 0 -6 5 4 9 16 10 27 2 19 1 19 -19 3 -13 -12 -17 -13 -10 -3 7 8 10 39 9
68 -1 37 2 52 10 48 13 -5 14 49 0 61 -4 5 -5 2 -1 -4 4 -7 3 -13 -2 -13 -4 0
-8 24 -8 54 1 30 4 52 9 49 4 -2 5 -8 2 -13 -3 -4 3 -14 13 -21 15 -12 16 -12
6 1 -6 8 -10 25 -9 38 1 13 -3 26 -8 29 -6 3 -7 1 -3 -5 4 -7 3 -12 -2 -12 -5
0 -8 18 -8 40 0 26 4 39 11 36 7 -2 12 2 12 10 0 7 -4 11 -9 8 -9 -6 -9 -6
-12 49 -2 21 2 40 7 44 6 4 7 1 2 -8 -5 -8 -4 -11 0 -6 5 4 9 16 10 27 2 19 1
19 -19 3 -13 -12 -17 -13 -9 -3 6 9 10 28 9 42 -2 15 1 25 6 22 5 -3 7 -13 4
-21 -3 -8 -2 -11 3 -8 11 6 8 52 -4 63 -4 4 -5 1 -1 -5 4 -7 3 -13 -2 -13 -6
0 -9 11 -8 24 1 16 5 21 12 15 13 -10 12 26 -1 38 -4 5 -5 2 -1 -5 4 -6 3 -12
-2 -12 -6 0 -9 11 -8 24 1 16 5 21 12 15 13 -10 12 26 -1 38 -4 5 -5 2 -1 -4
4 -7 3 -13 -2 -13 -5 0 -8 15 -8 34 1 19 4 32 9 29 4 -2 5 -8 2 -13 -3 -5 -2
-11 3 -14 11 -7 8 51 -3 61 -4 5 -5 2 -1 -4 4 -7 3 -13 -2 -13 -5 0 -8 18 -8
40 0 25 4 39 11 36 13 -5 13 50 0 61 -4 5 -5 2 -1 -4 4 -7 3 -13 -2 -13 -6 0
-9 11 -8 24 1 16 5 21 12 15 13 -10 12 26 -1 38 -4 5 -5 2 -1 -4 4 -7 3 -13
-2 -13 -6 0 -9 11 -8 24 1 16 5 21 12 15 13 -10 12 26 -1 38 -4 5 -5 2 -1 -4
4 -7 3 -13 -2 -13 -5 0 -8 15 -8 34 1 19 4 32 9 29 4 -2 5 -8 2 -13 -3 -5 -2
-11 3 -14 11 -7 8 51 -3 61 -4 5 -5 2 -1 -4 4 -7 3 -13 -2 -13 -5 0 -8 18 -8
40 0 26 4 39 11 36 7 -2 12 2 12 10 0 7 -4 11 -9 8 -9 -6 -9 -6 -12 49 -2 21
2 40 7 44 6 4 7 1 2 -8 -5 -8 -4 -11 0 -6 5 4 9 16 10 27 2 19 1 19 -19 3 -13
-12 -17 -13 -10 -3 7 8 10 39 9 68 -1 37 2 52 10 48 13 -5 14 49 0 61 -4 5 -5
2 -1 -4 4 -7 3 -13 -2 -13 -4 0 -8 24 -8 54 1 30 4 52 9 49 4 -2 5 -8 2 -13
-3 -4 3 -14 13 -21 15 -12 16 -12 6 1 -6 8 -10 25 -9 38 1 13 -3 26 -8 29 -6
3 -7 1 -3 -5 4 -7 3 -12 -2 -12 -5 0 -8 18 -8 40 0 26 4 39 11 36 7 -2 12 2
12 10 0 7 -4 11 -9 8 -9 -6 -9 -6 -12 49 -2 21 2 40 7 44 6 4 7 1 2 -8 -5 -8
-4 -11 0 -6 5 4 9 16 10 27 2 19 1 19 -19 3 -13 -12 -17 -13 -9 -3 6 9 10 28
9 42 -2 15 1 25 6 22 5 -3 7 -13 4 -21 -3 -8 -2 -11 3 -8 11 6 8 52 -4 63 -4
4 -5 1 -1 -5 4 -7 3 -13 -2 -13 -6 0 -9 11 -8 24 1 16 5 21 12 15 13 -10 12
26 -1 38 -4 5 -5 2 -1 -4 4 -7 3 -13 -2 -13 -6 0 -9 11 -8 24 1 16 5 21 12 15
13 -10 12 26 -1 38 -4 5 -5 2 -1 -4 4 -7 3 -13 -2 -13 -5 0 -8 15 -8 34 1 19
4 32 9 29 4 -2 5 -8 2 -13 -3 -5 -2 -11 3 -14 11 -7 8 51 -3 61 -4 5 -5 2 -1
-4 4 -7 3 -13 -2 -13 -5 0 -8 18 -8 40 0 25 4 39 11 36 13 -5 13 50 0 61 -4 5
-5 2 -1 -4 4 -7 3 -13 -2 -13 -6 0 -9 11 -8 24 1 16 5 21 12 15 13 -10 12 26
-1 38 -4 5 -5 2 -1 -4 4 -7 3 -13 -2 -13 -6 0 -9 11 -8 24 1 16 5 21 12 15 13
-10 12 26 -1 38 -4 5 -5 2 -1 -4 4 -7 3 -13 -2 -13 -5 0 -8 15 -8 34 1 19 4
32 9 29 4 -2 5 -8 2 -13 -3 -5 -2 -11 3 -14 11 -7 8 51 -3 61 -4 5 -5 2 -1 -4
4 -7 3 -13 -2 -13 -5 0 -8 18 -8 40 0 26 4 39 11 36 7 -2 12 2 12 10 0 7 -4
11 -9 8 -9 -6 -9 -6 -12 49 -2 21 2 40 7 44 6 4 7 1 2 -8 -5 -8 -4 -11 0 -6 5
4 9 16 10 27 2 19 1 19 -19 3 -13 -12 -17 -13 -10 -3 7 8 10 39 9 68 -1 37 2
52 10 48 13 -5 14 49 0 61 -4 5 -5 2 -1 -4 4 -7 3 -13 -2 -13 -4 0 -8 24 -8
54 1 30 3 52 6 49 3 -2 5 -10 5 -16 0 -5 7 -12 15 -14 10 -3 11 -2 4 4 -6 4
-10 18 -9 31 1 13 -3 26 -8 29 -6 3 -7 1 -3 -5 4 -7 3 -12 -2 -12 -5 0 -8 18
-8 40 0 24 5 39 11 37 6 -3 10 13 10 39 1 42 0 43 -13 19 -7 -14 -15 -25 -18
-25 -3 0 -1 7 4 16 11 19 4 55 -12 66 -8 5 -7 8 2 8 6 0 12 5 12 11 0 6 -9 8
-22 4 -14 -4 -18 -3 -11 2 19 13 9 49 -13 45 -15 -3 -16 -2 -5 12 12 14 12 16
-2 10 -12 -4 -15 -1 -12 14 4 25 -19 47 -37 36 -9 -6 -9 -3 1 9 12 15 12 17
-3 11 -9 -4 -16 -1 -16 6 0 7 -7 10 -15 6 -8 -3 -14 -2 -14 2 4 22 -4 29 -25
27 -18 -2 -23 1 -19 11 5 13 -13 18 -55 17 -7 -1 -11 5 -8 13 4 11 -181 13
-1131 13 -626 -1 -1130 -5 -1123 -9z m2240 -6 c0 -8 -19 -13 -24 -6 -3 5 1 9
9 9 8 0 15 -2 15 -3z m-2335 -72 c-3 -3 -11 0 -18 7 -9 10 -8 11 6 5 10 -3 15
-9 12 -12z m-155 -1222 c0 -5 -2 -10 -4 -10 -3 0 -8 5 -11 10 -3 6 -1 10 4 10
6 0 11 -4 11 -10z m-3 -79 c0 -11 -5 -18 -9 -15 -4 3 -5 11 -1 19 7 21 12 19
10 -4z m-1 -90 c0 -17 -3 -28 -6 -26 -5 3 -6 38 -1 53 4 10 7 -3 7 -27z m4
-71 c0 -5 -2 -10 -4 -10 -3 0 -8 5 -11 10 -3 6 -1 10 4 10 6 0 11 -4 11 -10z
m-3 -90 c0 -16 -3 -30 -7 -30 -6 0 -7 21 -1 53 3 18 8 4 8 -23z m3 -150 c0 -5
-2 -10 -4 -10 -3 0 -8 5 -11 10 -3 6 -1 10 4 10 6 0 11 -4 11 -10z m-3 -79 c0
-11 -5 -18 -9 -15 -4 3 -5 11 -1 19 7 21 12 19 10 -4z m-1 -90 c0 -17 -3 -28
-6 -26 -5 3 -6 38 -1 53 4 10 7 -3 7 -27z m4 -71 c0 -5 -2 -10 -4 -10 -3 0 -8
5 -11 10 -3 6 -1 10 4 10 6 0 11 -4 11 -10z m-3 -90 c0 -16 -3 -30 -7 -30 -6
0 -7 21 -1 53 3 18 8 4 8 -23z m3 -150 c0 -5 -2 -10 -4 -10 -3 0 -8 5 -11 10
-3 6 -1 10 4 10 6 0 11 -4 11 -10z m-3 -79 c0 -11 -5 -18 -9 -15 -4 3 -5 11
-1 19 7 21 12 19 10 -4z m-1 -90 c0 -17 -3 -28 -6 -26 -5 3 -6 38 -1 53 4 10
7 -3 7 -27z m4 -71 c0 -5 -2 -10 -4 -10 -3 0 -8 5 -11 10 -3 6 -1 10 4 10 6 0
11 -4 11 -10z m-3 -90 c0 -16 -3 -30 -7 -30 -6 0 -7 21 -1 53 3 18 8 4 8 -23z
m3 -150 c0 -5 -2 -10 -4 -10 -3 0 -8 5 -11 10 -3 6 -1 10 4 10 6 0 11 -4 11
-10z m-3 -79 c0 -11 -5 -18 -9 -15 -4 3 -5 11 -1 19 7 21 12 19 10 -4z m-1
-90 c0 -17 -3 -28 -6 -26 -5 3 -6 38 -1 53 4 10 7 -3 7 -27z m4 -71 c0 -5 -2
-10 -4 -10 -3 0 -8 5 -11 10 -3 6 -1 10 4 10 6 0 11 -4 11 -10z m-3 -90 c0
-16 -3 -30 -7 -30 -6 0 -7 21 -1 53 3 18 8 4 8 -23z m3 -150 c0 -5 -2 -10 -4
-10 -3 0 -8 5 -11 10 -3 6 -1 10 4 10 6 0 11 -4 11 -10z m-3 -79 c0 -11 -5
-18 -9 -15 -4 3 -5 11 -1 19 7 21 12 19 10 -4z m-1 -90 c0 -17 -3 -28 -6 -26
-5 3 -6 38 -1 53 4 10 7 -3 7 -27z m4 -71 c0 -5 -2 -10 -4 -10 -3 0 -8 5 -11
10 -3 6 -1 10 4 10 6 0 11 -4 11 -10z m0 -211 c0 -5 -4 -9 -8 -9 -5 0 -9 7 -9
15 0 8 4 12 9 9 4 -3 8 -9 8 -15z"/>
<path d="M3980 4601 c0 -6 4 -13 10 -16 6 -3 7 1 4 9 -7 18 -14 21 -14 7z"/>
<path d="M1189 4593 c-5 -36 -5 -62 -1 -58 7 7 12 65 6 65 -2 0 -4 -3 -5 -7z"/>
<path d="M3980 4481 c0 -6 4 -13 10 -16 6 -3 7 1 4 9 -7 18 -14 21 -14 7z"/>
<path d="M1189 4433 c-5 -36 -5 -62 -1 -58 7 7 12 65 6 65 -2 0 -4 -3 -5 -7z"/>
<path d="M3980 4361 c0 -6 4 -13 10 -16 6 -3 7 1 4 9 -7 18 -14 21 -14 7z"/>
<path d="M3983 4315 c0 -8 4 -12 9 -9 4 3 8 9 8 15 0 5 -4 9 -8 9 -5 0 -9 -7
-9 -15z"/>
<path d="M1189 4273 c-5 -36 -5 -62 -1 -58 7 7 12 65 6 65 -2 0 -4 -3 -5 -7z"/>
<path d="M3989 4228 c-5 -16 -4 -46 2 -42 4 2 7 13 6 24 -1 17 -5 26 -8 18z"/>
<path d="M3980 4121 c0 -6 4 -13 10 -16 6 -3 7 1 4 9 -7 18 -14 21 -14 7z"/>
<path d="M1189 4113 c-5 -36 -5 -62 -1 -58 7 7 12 65 6 65 -2 0 -4 -3 -5 -7z"/>
<path d="M1189 3953 c-5 -36 -5 -62 -1 -58 7 7 12 65 6 65 -2 0 -4 -3 -5 -7z"/>
<path d="M3980 3801 c0 -6 4 -13 10 -16 6 -3 7 1 4 9 -7 18 -14 21 -14 7z"/>
<path d="M3989 3428 c-5 -16 -4 -46 2 -42 4 2 7 13 6 24 -1 17 -5 26 -8 18z"/>
<path d="M3980 3321 c0 -6 4 -13 10 -16 6 -3 7 1 4 9 -7 18 -14 21 -14 7z"/>
<path d="M3980 3201 c0 -6 4 -13 10 -16 6 -3 7 1 4 9 -7 18 -14 21 -14 7z"/>
<path d="M3980 3081 c0 -6 4 -13 10 -16 6 -3 7 1 4 9 -7 18 -14 21 -14 7z"/>
<path d="M3983 3035 c0 -8 4 -12 9 -9 4 3 8 9 8 15 0 5 -4 9 -8 9 -5 0 -9 -7
-9 -15z"/>
<path d="M3989 2948 c-5 -16 -4 -46 2 -42 4 2 7 13 6 24 -1 17 -5 26 -8 18z"/>
<path d="M3980 2841 c0 -6 4 -13 10 -16 6 -3 7 1 4 9 -7 18 -14 21 -14 7z"/>
<path d="M3980 2521 c0 -6 4 -13 10 -16 6 -3 7 1 4 9 -7 18 -14 21 -14 7z"/>
<path d="M3989 2148 c-5 -16 -4 -46 2 -42 4 2 7 13 6 24 -1 17 -5 26 -8 18z"/>
<path d="M3980 2041 c0 -6 4 -13 10 -16 6 -3 7 1 4 9 -7 18 -14 21 -14 7z"/>
<path d="M3980 1921 c0 -6 4 -13 10 -16 6 -3 7 1 4 9 -7 18 -14 21 -14 7z"/>
<path d="M3980 1801 c0 -6 4 -13 10 -16 6 -3 7 1 4 9 -7 18 -14 21 -14 7z"/>
<path d="M3983 1755 c0 -8 4 -12 9 -9 4 3 8 9 8 15 0 5 -4 9 -8 9 -5 0 -9 -7
-9 -15z"/>
<path d="M3989 1668 c-5 -16 -4 -46 2 -42 4 2 7 13 6 24 -1 17 -5 26 -8 18z"/>
<path d="M3980 1561 c0 -6 4 -13 10 -16 6 -3 7 1 4 9 -7 18 -14 21 -14 7z"/>
<path d="M3980 1241 c0 -6 4 -13 10 -16 6 -3 7 1 4 9 -7 18 -14 21 -14 7z"/>
<path d="M1189 1233 c-5 -36 -5 -62 -1 -58 7 7 12 65 6 65 -2 0 -4 -3 -5 -7z"/>
<path d="M1189 1073 c-5 -36 -5 -62 -1 -58 7 7 12 65 6 65 -2 0 -4 -3 -5 -7z"/>
<path d="M1189 913 c-5 -36 -5 -62 -1 -58 7 7 12 65 6 65 -2 0 -4 -3 -5 -7z"/>
<path d="M3989 868 c-5 -16 -4 -46 2 -42 4 2 7 13 6 24 -1 17 -5 26 -8 18z"/>
<path d="M3980 761 c0 -6 4 -13 10 -16 6 -3 7 1 4 9 -7 18 -14 21 -14 7z"/>
<path d="M1189 753 c-5 -36 -5 -62 -1 -58 7 7 12 65 6 65 -2 0 -4 -3 -5 -7z"/>
<path d="M3980 641 c0 -6 4 -13 10 -16 6 -3 7 1 4 9 -7 18 -14 21 -14 7z"/>
<path d="M1189 593 c-5 -36 -5 -62 -1 -58 7 7 12 65 6 65 -2 0 -4 -3 -5 -7z"/>
<path d="M3980 521 c0 -6 4 -13 10 -16 6 -3 7 1 4 9 -7 18 -14 21 -14 7z"/>
<path d="M3983 475 c0 -8 4 -12 9 -9 4 3 8 9 8 15 0 5 -4 9 -8 9 -5 0 -9 -7
-9 -15z"/>
<path d="M3825 170 c-3 -5 -2 -10 4 -10 5 0 13 5 16 10 3 6 2 10 -4 10 -5 0
-13 -4 -16 -10z"/>
</g>
</svg>
